<?xml version="1.0" encoding="UTF-8"?>
<svg width="272px" height="68px" viewBox="0 0 272 68" version="1.1" xmlns="http://www.w3.org/2000/svg" xmlns:xlink="http://www.w3.org/1999/xlink">
    <title>0211617B-9CD6-4D27-A642-94F68C2BDEC6@1x</title>
    <defs>
        <linearGradient x1="33.4687092%" y1="47.4460134%" x2="70.4116626%" y2="52.3980169%" id="linearGradient-1">
            <stop stop-color="#8CFFA3" offset="0%"></stop>
            <stop stop-color="#6DFFC9" offset="95.7323286%"></stop>
            <stop stop-color="#6CFFCB" offset="100%"></stop>
        </linearGradient>
        <path d="M69.8456031,429.985697 C70.2625822,429.985697 70.6221327,429.701099 70.7294983,429.299166 C70.7719455,429.134398 70.8044046,428.979616 70.8019074,428.88475 C70.7969139,428.547725 70.8668257,428.193226 70.869323,427.856201 C70.8868007,425.199949 70.9592109,422.331495 70.9317452,419.67774 C70.9290036,419.408708 70.9270607,418.968783 70.9258104,418.385215 L70.9246906,417.669538 C70.9245974,417.583604 70.9245144,417.495586 70.9244413,417.405536 L70.9245022,414.881535 C70.9245758,414.762387 70.9246578,414.641633 70.924748,414.519327 L70.9257731,413.378088 C70.9261842,412.98466 70.926663,412.578697 70.9272038,412.161635 L70.9283663,411.313138 C70.9318849,408.869548 70.9372749,406.100328 70.9435188,403.26696 L70.9457564,402.264711 L70.9480549,401.259689 C70.9484425,401.092096 70.9488323,400.924494 70.9492239,400.756936 L70.9719504,400.811585 C71.1720081,401.27814 72.8222381,405.130377 74.4148303,408.964077 L74.7321335,409.729561 C75.9420912,412.655236 77.0590869,415.436619 77.4036564,416.539668 C77.4510971,416.689456 77.5035313,416.851727 77.5984126,416.971559 C77.7057782,417.106368 78.1652035,417.675565 78.322507,417.732985 C78.7969137,417.91273 79.2838047,417.12634 79.4985369,416.661996 C79.6530316,416.326532 81.731878,411.988902 83.8392532,407.594955 L84.2004432,406.841891 L84.5600697,406.092142 C85.574792,403.976719 86.5451294,401.954399 87.2538416,400.477332 C87.2432489,402.148837 87.2324842,403.844757 87.2218254,405.520788 L87.2154451,406.523666 C87.1624187,414.855183 87.1134303,422.467965 87.1032197,423.824097 L87.1021828,423.956446 C87.1019007,423.990316 87.1016829,424.01382 87.1015315,424.026605 C87.0840538,425.409654 87.0965381,427.009895 87.0990353,428.392945 C87.0990353,428.575187 87.0990353,428.75743 87.1190103,428.937177 C87.2039036,429.618716 87.4860504,429.893328 88.1776867,429.933271 C88.7669508,429.968222 89.7432301,429.973216 90.3324942,429.983201 C90.6867571,429.988488 91.2923322,429.991287 91.9971807,429.99246 L93.4941936,429.99246 C94.3921072,429.991443 95.2871819,429.988782 95.9379859,429.985698 C96.354965,429.985698 96.7145154,429.7011 96.821881,429.299167 C96.8643282,429.134399 96.8967874,428.979617 96.8942901,428.884751 C96.8892967,428.547726 96.9592085,428.193227 96.9617058,427.856202 C96.9791835,425.19995 97.0515936,422.331497 97.0241279,419.677741 C97.0206707,419.3301 97.0185079,418.696999 97.0174463,417.837272 L97.0173718,414.637049 C97.017477,414.4977 97.0175935,414.356279 97.017721,414.212867 L97.0186148,413.329153 C97.0220178,410.308112 97.0295864,406.555313 97.0392001,402.716395 L97.0421434,401.562781 C97.0661469,392.323534 97.1007084,382.960124 97.1165131,382.397841 C97.1290016,381.921012 96.9442324,381.626427 96.5122717,381.361801 C95.9854297,381.034762 95.461085,381.002308 94.8868024,381.042251 C93.4386126,381.147104 90.177688,381.042251 88.514767,381.019345 C88.2750664,381.017287 88.0553407,381.089685 87.8730687,381.219501 C87.8306215,381.246963 87.7881754,381.279417 87.7507217,381.314368 C87.6034061,381.444185 87.491046,381.616442 87.4361146,381.813664 C87.2813084,382.367881 79.3287503,399.920616 78.9317461,399.935595 C78.7856787,399.940588 76.9515966,395.726846 75.1041873,391.416709 L74.735024,390.554617 C73.0160637,386.536926 71.3827498,382.674666 71.1966654,382.31945 C70.5632622,381.110379 69.3251874,381.046326 68.8669138,381.04252 L68.7944185,381.042253 C66.6051546,381.039257 64.0853041,381.042253 62.4223832,381.019345 C61.8381136,381.012295 61.3537188,381.461661 61.3112716,382.040844 C61.2987874,382.230576 61.2888004,382.400336 61.2863032,382.497699 C61.2769149,382.860263 61.2173346,391.885347 61.1557796,401.430182 L61.1439809,403.262152 C61.0810594,413.04395 61.0192884,422.825749 61.010029,423.93389 L61.0091488,424.026604 C60.9916711,425.409653 61.0041553,427.009894 61.0066526,428.392944 C61.0066526,428.575186 61.0066526,428.757429 61.0266275,428.937176 C61.1115209,429.618715 61.3936677,429.893327 62.0853039,429.93327 C62.6745681,429.968221 63.6508473,429.973215 64.2401115,429.9832 C64.5943744,429.988487 65.1999494,429.991286 65.9047979,429.99246 L67.4018109,429.99246 C68.2997245,429.991441 69.1947992,429.988781 69.8456031,429.985697 Z M117.37778,431 C120.276906,431 122.872911,430.344675 125.165045,429.031527 C127.457429,427.719877 129.249939,425.917171 130.542822,423.625405 C131.835707,421.333389 132.482149,418.777246 132.482149,415.956725 C132.482149,413.135955 131.835707,410.579811 130.542822,408.287794 C129.249939,405.996528 127.45743,404.19482 125.165046,402.881672 C122.872912,401.569524 120.276657,400.913199 117.377531,400.913199 C114.477656,400.913199 111.872414,401.569524 109.560803,402.881672 C107.248443,404.19482 105.446445,405.996528 104.153561,408.287795 C102.860677,410.579811 102.214235,413.135955 102.214235,415.956726 C102.214235,418.777246 102.860677,421.333638 104.15381,423.625405 C105.446695,425.917171 107.248693,427.719877 109.561052,429.031527 C111.872413,430.344675 114.477905,431 117.37778,431 Z M153.33891,430.010443 C153.425302,430.011862 153.513941,429.97167 153.599086,429.943459 C153.640285,429.929978 153.67549,429.899271 153.767874,429.84385 C153.975864,429.35504 154.196837,428.815051 154.434291,428.282303 C155.343627,426.243544 156.958989,421.940443 158.608402,417.472533 L159.021075,416.353337 C161.015334,410.93904 162.977547,405.539565 163.72218,403.859014 C163.920182,403.412643 164.230045,402.991488 164.153641,402.480708 C163.943224,402.027665 163.572177,401.989747 163.20543,401.991072 L162.96338,401.993644 C160.743155,401.994393 158.523181,402.009621 156.303456,402.039579 C155.815067,402.04607 155.3082,402.035336 154.929174,402.259519 C154.839785,402.359877 154.798088,402.388586 154.780859,402.42803 C154.091522,404.026654 153.24933,407.012888 152.462099,410.032942 L152.157318,411.213424 C151.086907,415.395468 150.175357,419.301163 149.982357,419.284497 C147.846776,414.864234 146.253767,407.312888 144.297962,402.813486 C144.104205,402.367865 143.666003,402.077524 143.18011,402.064293 C141.933668,402.030091 140.703956,401.957443 139.46875,401.974918 C138.13317,401.993891 136.797339,401.982657 135.391347,401.98016 C135.047527,401.979661 134.727927,402.231306 134.708201,402.574822 C134.706453,402.603032 134.707349,402.630993 134.711197,402.658703 C134.752396,402.961276 134.929425,403.248122 135.063007,403.534968 C138.827551,411.620809 141.594093,420.709985 145.36413,428.793081 C145.495715,429.075182 145.648774,429.347298 145.797588,429.612924 C145.917189,429.826372 146.138662,429.963179 146.383106,429.971917 C147.073443,429.996882 148.198237,430.00567 149.349949,430.008171 L151.364074,430.008018 C151.467804,430.00787 151.569358,430.007718 151.668329,430.007572 L152.908173,430.007103 C153.097012,430.007598 153.244258,430.008597 153.33891,430.010443 Z M172.300703,397.968061 C175.156383,397.968061 177.471239,395.441127 177.471239,392.323775 C177.471239,389.206423 175.156383,386.679489 172.300703,386.679489 C169.445024,386.679489 167.130168,389.206673 167.130168,392.323775 C167.130168,395.440877 169.445024,397.968061 172.300703,397.968061 Z M170.219054,429.980395 C172.116682,429.910495 175.859503,429.952934 176.508691,429.980395 C176.918179,429.980395 176.87823,428.677234 176.875732,428.192917 L176.874529,427.999328 L176.874225,427.245159 C176.881567,424.032405 176.976665,416.13994 176.986214,411.568108 L176.986568,410.409585 C176.985441,409.818379 176.981988,409.320101 176.975607,408.942578 C176.971113,408.70666 177.003073,405.844698 177.032786,403.118045 C177.039776,402.482191 176.52592,401.962674 175.889715,401.962674 L168.955135,401.962674 C168.328669,401.962674 167.819555,402.466715 167.812564,403.092831 C167.732913,410.275447 167.59958,417.457814 167.594836,424.640429 C167.592339,425.863704 167.634786,427.089473 167.582351,428.310251 C167.529917,429.506064 167.322675,429.980395 168.685971,429.980395 C168.818305,429.950437 170.084223,429.985388 170.219054,429.980395 Z M205.908404,428.699794 C207.549102,427.585866 208.891424,426.402285 210.247229,424.938351 C210.528128,424.63478 210.960088,423.976709 211.186305,423.632195 C211.499913,423.154869 211.260212,422.974623 210.782309,422.636849 C210.220761,422.23991 210.151847,422.123324 209.537864,421.815259 C208.097914,421.092529 207.923882,420.748764 206.515642,419.966868 C205.981311,419.670286 205.83749,419.615863 205.224008,420.200288 C204.757341,420.64491 203.566329,421.647745 202.46945,422.331281 C198.044482,425.088141 191.187054,422.189731 190.931873,418.121471 C190.925131,418.012375 190.891423,417.803919 190.954843,417.599956 C198.895916,417.601454 203.368325,417.924998 211.728124,417.806914 C211.843483,417.544035 212.01302,417.339323 212.009095,417.137858 C211.983058,415.852172 212.009095,408.628114 207.917641,404.887142 C202.459214,399.896184 195.156344,399.937625 189.141613,403.015532 C183.174323,406.069224 180.455223,413.548171 182.083187,419.883983 C182.64199,422.058665 183.843487,424.493479 185.419267,426.120184 C188.05622,428.842593 191.269953,430.257346 195.034747,430.825794 C198.296919,431.318349 203.110901,430.599114 205.908404,428.699794 Z M203.101656,412.666417 C199.934865,412.59352 196.518636,412.520123 193.352594,412.425257 C192.859461,412.410528 192.292669,412.38756 191.474941,412.397796 C191.893917,411.264395 192.810022,409.951497 193.666701,409.369318 C194.824753,408.58243 196.352343,408.142551 197.785801,408.146025 C200.471693,408.152536 203.03424,410.366912 203.528372,412.666417 C203.455962,412.71385 203.173066,412.667915 203.101656,412.666417 Z M235.729268,429.823772 C236.720029,429.791068 237.71104,429.742137 238.698056,429.646772 C241.250366,429.40012 242.771964,429.080821 244.884573,427.469844 C246.916534,425.92028 248.579705,423.773059 249.245122,421.36221 C250.13526,418.138009 249.893562,414.144644 248.845623,410.956392 C247.687819,407.433864 244.347245,405.053971 240.774711,404.671012 C242.441127,404.249606 245.504548,403.436004 246.720028,400.691626 C248.786695,396.02496 248.355235,390.753648 245.441876,386.464699 C243.392188,383.446956 239.64712,381.521922 236.045123,381.29699 C233.733263,381.152694 229.918532,381.067814 227.602427,381.024625 C226.623551,381.006351 225.714607,381.001198 224.789088,381 L218.626147,381 C217.814911,381 217.151741,381.583088 217.148995,382.350754 C217.141255,384.440055 217.141754,386.529358 217.159732,388.618659 C217.170219,389.822212 217.245124,391.025514 217.249119,392.229066 C217.264101,396.819089 217.255861,401.409362 217.269843,405.999386 C217.275087,407.657297 217.338507,409.314958 217.340505,410.972868 C217.343003,413.039452 217.307048,415.106286 217.293315,417.17312 C217.291068,417.51339 217.336511,417.854408 217.327023,418.194178 C217.2651,420.418541 217.164726,422.642403 217.13776,424.867264 C217.122029,426.159691 217.205674,427.454114 217.271093,428.746042 C217.306049,429.437068 218.086324,429.945101 218.397935,429.945101 L227.851366,429.945101 C230.633638,429.945101 233.093563,429.910899 235.729268,429.823772 Z M231.748995,401.197911 C230.328992,401.197911 229.452301,401.193683 228.267074,401.191804 L227.155737,401.190922 C226.434888,401.190922 226.951243,390.081597 226.951243,390.081597 C228.020906,389.614505 233.461605,389.833446 233.794938,389.944289 C234.965974,390.029918 236.380206,390.398898 237.257609,391.204511 C238.8656,392.680927 239.024152,394.890809 238.842878,396.956894 C238.506435,400.793712 234.917694,401.180352 231.974088,401.197286 L231.748995,401.197911 Z M228.623708,421.366701 C227.776434,421.365101 227.15384,421.360625 227.057119,421.359176 L227.064601,421.358718 L226.948247,409.249303 C228.505799,409.249303 229.058359,409.170165 230.875337,409.178653 C233.607171,409.191135 235.292316,408.547793 237.423651,410.394936 C239.293064,412.014901 240.236385,415.161961 239.709044,417.388819 C239.331766,418.982071 238.360979,419.807406 236.969219,420.691409 C236.305799,421.112815 235.223901,421.0529 234.442877,421.244629 C234.061132,421.338386 231.686662,421.363181 229.729007,421.366701 L228.623708,421.366701 Z M268.590402,431 C271.489528,431 274.085533,430.344675 276.377667,429.031527 C278.670051,427.719877 280.462561,425.917171 281.755444,423.625405 C283.048329,421.333389 283.694771,418.777246 283.694771,415.956725 C283.694771,413.135955 283.048329,410.579811 281.755444,408.287794 C280.462561,405.996528 278.670052,404.19482 276.377668,402.881672 C274.085534,401.569524 271.489279,400.913199 268.590153,400.913199 C265.690278,400.913199 263.085035,401.569524 260.773425,402.881672 C258.461064,404.19482 256.659067,405.996528 255.366183,408.287795 C254.073299,410.579811 253.426857,413.135955 253.426857,415.956726 C253.426857,418.777246 254.073299,421.333638 255.366432,423.625405 C256.659317,425.917171 258.461315,427.719877 260.773673,429.031527 C263.085034,430.344675 265.690527,431 268.590402,431 Z M294.765722,429.983981 C295.017907,429.983981 295.270092,429.891612 295.519779,429.841682 C295.590566,429.677664 296.5792,427.972213 297.645286,426.145833 L298.002363,425.53451 C299.194498,423.494825 300.366969,421.500701 300.366969,421.500701 C300.366969,421.500701 301.511039,423.220213 302.712225,425.046761 L303.092178,425.625242 C304.166906,427.263698 305.195762,428.851961 305.400177,429.235039 C305.597431,429.604518 305.874584,429.904095 306.311538,429.914081 C306.645022,429.923068 307.568096,429.927203 308.656022,429.928813 L309.401068,429.929539 C309.781141,429.92974 310.169044,429.929719 310.549045,429.92956 L311.989621,429.928404 C312.099942,429.928281 312.207055,429.928155 312.310377,429.928031 L313.122183,429.927017 C313.197515,429.926926 313.267307,429.926845 313.330978,429.926778 L313.634883,429.926564 C314.024397,429.926564 314.671089,430.038905 314.873336,429.71686 C315.090314,429.102727 315.020401,428.570977 314.72577,428.029241 C314.467272,427.554617 312.617957,424.882954 310.712015,422.152039 L310.235238,421.469312 C308.251148,418.629786 306.344338,415.919269 306.248869,415.754061 C306.563476,415.255264 308.404375,412.122285 310.260375,409.010335 L310.672454,408.320216 C311.768717,406.486578 312.830975,404.729393 313.544749,403.601207 C313.707046,403.34407 313.861852,403.069457 313.966721,402.782362 C314.084074,402.462813 313.996683,402.175717 313.572214,401.956027 C310.97546,401.936055 308.283825,401.913587 305.592191,401.906097 C305.340006,401.906097 305.085325,402.000963 304.835637,402.050893 C304.680831,402.412883 304.555986,402.742417 304.40118,403.056974 C303.564726,404.735855 300.692317,409.530839 300.311293,410.356674 C299.225151,408.419407 296.161481,403.511333 295.704552,402.655041 C295.509796,402.285562 295.135763,401.933308 294.698809,401.920826 C294.487323,401.915131 293.984906,401.912036 293.330529,401.91065 L291.050485,401.910729 C289.528875,401.912847 287.962461,401.917784 287.241381,401.919827 C286.973217,401.920576 286.503305,401.864405 286.470096,402.130529 C286.416913,402.557677 286.386201,402.630324 286.603928,403.031008 C286.851658,403.485856 288.470612,406.069159 290.191251,408.799766 L290.866917,409.871387 C292.742532,412.84457 294.542641,415.686485 294.636886,415.852917 C294.112542,416.681748 288.820407,425.118344 286.813166,428.288871 C286.648372,428.548505 286.493565,428.820621 286.388696,429.107716 C286.27384,429.427266 286.358733,429.716858 286.783202,429.936548 C289.382452,429.954023 292.074088,429.976492 294.765722,429.983981 Z" id="path-2"></path>
        <filter x="-4.3%" y="-24.0%" width="112.6%" height="164.0%" filterUnits="objectBoundingBox" id="filter-3">
            <feOffset dx="5" dy="4" in="SourceAlpha" result="shadowOffsetOuter1"></feOffset>
            <feGaussianBlur stdDeviation="4.5" in="shadowOffsetOuter1" result="shadowBlurOuter1"></feGaussianBlur>
            <feColorMatrix values="0 0 0 0 0.48452431   0 0 0 0 0.988198817   0 0 0 0 0.824407756  0 0 0 0.22227382 0" type="matrix" in="shadowBlurOuter1"></feColorMatrix>
        </filter>
    </defs>
    <g id="🔴-Variation-A-(details)" stroke="none" stroke-width="1" fill="none" fill-rule="evenodd">
        <g id="splash" transform="translate(-57.000000, -376.000000)" fill-rule="nonzero">
            <g id="MovieBox">
                <use fill="black" fill-opacity="1" filter="url(#filter-3)" xlink:href="#path-2"></use>
                <use fill="url(#linearGradient-1)" xlink:href="#path-2"></use>
            </g>
        </g>
    </g>
</svg>