<svg width="27" height="20" viewBox="0 0 27 20" fill="none" xmlns="http://www.w3.org/2000/svg">
<path d="M25.4167 0H25V1.04167C25 1.40625 24.6875 1.66667 24.375 1.66667H22.2917C21.9271 1.66667 21.6667 1.40625 21.6667 1.04167V0H5V1.04167C5 1.40625 4.6875 1.66667 4.375 1.66667H2.29167C1.92708 1.66667 1.66667 1.40625 1.66667 1.04167V0H1.25C0.520833 0 0 0.572917 0 1.25V18.75C0 19.4792 0.520833 20 1.25 20H1.66667V18.9583C1.66667 18.6458 1.92708 18.3333 2.29167 18.3333H4.375C4.6875 18.3333 5 18.6458 5 18.9583V20H21.6667V18.9583C21.6667 18.6458 21.9271 18.3333 22.2917 18.3333H24.375C24.6875 18.3333 25 18.6458 25 18.9583V20H25.4167C26.0937 20 26.6667 19.4792 26.6667 18.75V1.25C26.6667 0.572917 26.0937 0 25.4167 0ZM5 16.0417C5 16.4062 4.6875 16.6667 4.375 16.6667H2.29167C1.92708 16.6667 1.66667 16.4062 1.66667 16.0417V13.9583C1.66667 13.6458 1.92708 13.3333 2.29167 13.3333H4.375C4.6875 13.3333 5 13.6458 5 13.9583V16.0417ZM5 11.0417C5 11.4062 4.6875 11.6667 4.375 11.6667H2.29167C1.92708 11.6667 1.66667 11.4062 1.66667 11.0417V8.95833C1.66667 8.64583 1.92708 8.33333 2.29167 8.33333H4.375C4.6875 8.33333 5 8.64583 5 8.95833V11.0417ZM5 6.04167C5 6.40625 4.6875 6.66667 4.375 6.66667H2.29167C1.92708 6.66667 1.66667 6.40625 1.66667 6.04167V3.95833C1.66667 3.64583 1.92708 3.33333 2.29167 3.33333H4.375C4.6875 3.33333 5 3.64583 5 3.95833V6.04167ZM19.1667 16.875C19.1667 17.2396 18.8542 17.5 18.5417 17.5H8.125C7.76042 17.5 7.5 17.2396 7.5 16.875V11.875C7.5 11.5625 7.76042 11.25 8.125 11.25H18.5417C18.8542 11.25 19.1667 11.5625 19.1667 11.875V16.875ZM19.1667 8.125C19.1667 8.48958 18.8542 8.75 18.5417 8.75H8.125C7.76042 8.75 7.5 8.48958 7.5 8.125V3.125C7.5 2.8125 7.76042 2.5 8.125 2.5H18.5417C18.8542 2.5 19.1667 2.8125 19.1667 3.125V8.125ZM25 16.0417C25 16.4062 24.6875 16.6667 24.375 16.6667H22.2917C21.9271 16.6667 21.6667 16.4062 21.6667 16.0417V13.9583C21.6667 13.6458 21.9271 13.3333 22.2917 13.3333H24.375C24.6875 13.3333 25 13.6458 25 13.9583V16.0417ZM25 11.0417C25 11.4062 24.6875 11.6667 24.375 11.6667H22.2917C21.9271 11.6667 21.6667 11.4062 21.6667 11.0417V8.95833C21.6667 8.64583 21.9271 8.33333 22.2917 8.33333H24.375C24.6875 8.33333 25 8.64583 25 8.95833V11.0417ZM25 6.04167C25 6.40625 24.6875 6.66667 24.375 6.66667H22.2917C21.9271 6.66667 21.6667 6.40625 21.6667 6.04167V3.95833C21.6667 3.64583 21.9271 3.33333 22.2917 3.33333H24.375C24.6875 3.33333 25 3.64583 25 3.95833V6.04167Z" fill="#F5F5F5"/>
</svg>
