<svg width="23" height="20" viewBox="0 0 23 20" fill="none" xmlns="http://www.w3.org/2000/svg">
<path d="M21.5625 2.5H17.5V0.9375C17.5 0.429688 17.0703 0 16.5625 0H5.9375C5.39062 0 5 0.429688 5 0.9375V2.5H0.9375C0.390625 2.5 0 2.92969 0 3.4375V5.625C0 7.03125 0.859375 8.47656 2.38281 9.57031C3.63281 10.4688 5.11719 11.0156 6.67969 11.2109C7.92969 13.2422 9.375 14.0625 9.375 14.0625V16.875H7.5C6.09375 16.875 5 17.6953 5 19.0625V19.5312C5 19.8047 5.19531 20 5.46875 20H17.0312C17.2656 20 17.5 19.8047 17.5 19.5312V19.0625C17.5 17.6953 16.3672 16.875 15 16.875H13.125V14.0625C13.125 14.0625 14.5312 13.2422 15.7812 11.2109C17.3438 11.0156 18.8281 10.4688 20.0781 9.57031C21.6016 8.47656 22.5 7.03125 22.5 5.625V3.4375C22.5 2.92969 22.0703 2.5 21.5625 2.5ZM3.86719 7.53906C2.89062 6.875 2.5 6.09375 2.5 5.625V5H5C5.03906 6.28906 5.23438 7.42188 5.50781 8.39844C4.88281 8.16406 4.33594 7.89062 3.86719 7.53906ZM20 5.625C20 6.28906 19.2969 7.07031 18.5938 7.53906C18.125 7.89062 17.5781 8.16406 16.9531 8.39844C17.2266 7.42188 17.4219 6.28906 17.4609 5H20V5.625Z" fill="#61A5C2"/>
</svg>
