<svg width="40" height="28" viewBox="0 0 40 28" fill="none" xmlns="http://www.w3.org/2000/svg">
<path d="M39.6635 7.65344C28.5969 -2.55115 11.4031 -2.55115 0.336513 7.65344C-0.101149 8.09167 -0.101149 8.71772 0.273989 9.09335L2.39977 11.2219C2.83743 11.5975 3.46266 11.6601 3.8378 11.2845C12.9662 2.89547 27.0338 2.89547 36.1622 11.2845C36.5999 11.6601 37.1626 11.5975 37.6002 11.2219L39.726 9.09335C40.1011 8.71772 40.1011 8.09167 39.6635 7.65344ZM20.0313 19.9866C17.7804 19.9866 16.0298 21.8021 16.0298 23.9933C16.0298 26.2471 17.7804 28 20.0313 28C22.2196 28 24.0327 26.2471 24.0327 23.9933C24.0327 21.8021 22.2196 19.9866 20.0313 19.9866ZM32.6609 14.7904C25.4708 8.4047 14.5292 8.4047 7.33909 14.7904C6.90143 15.166 6.90143 15.8547 7.27657 16.2303L9.46487 18.3589C9.84001 18.7345 10.4027 18.7345 10.8404 18.4215C16.0923 13.8513 23.9077 13.8513 29.1596 18.4215C29.5973 18.7345 30.16 18.7345 30.5351 18.3589L32.7234 16.2303C33.0986 15.8547 33.0986 15.166 32.6609 14.7904Z" fill="#434343"/>
</svg>
