<?xml version="1.0" encoding="UTF-8"?>
<svg width="25px" height="24px" viewBox="0 0 25 24" version="1.1" xmlns="http://www.w3.org/2000/svg" xmlns:xlink="http://www.w3.org/1999/xlink">
    <title>B89FD41B-3B77-4204-9066-20B7A35F0F76@1x</title>
    <defs>
        <path d="M10,2 L10,16 L6,16 L6,2 L10,2 L10,2 Z M16,0 L14,0 L14,2 L12,2 L12,0 L4,0 L4,2 L2,2 L2,0 L0,0 L0,18 L2,18 L2,16 L4,16 L4,18 L12,18 L12,16 L14,16 L14,18 L16,18 L16,0 Z M12,6 L12,4 L14,4 L14,6 L12,6 Z M2,6 L2,4 L4,4 L4,6 L2,6 Z M12,10 L12,8 L14,8 L14,10 L12,10 Z M2,10 L2,8 L4,8 L4,10 L2,10 Z M12,14 L12,12 L14,12 L14,14 L12,14 Z M2,14 L2,12 L4,12 L4,14 L2,14 Z" id="path-1"></path>
    </defs>
    <g id="🔴-Variation-A-(details)" stroke="none" stroke-width="1" fill="none" fill-rule="evenodd">
        <g id="playing-now" transform="translate(-89.000000, -736.000000)">
            <g id="bottom-nav" transform="translate(0.000000, 730.000000)">
                <g id="Navigation/02-Bottom/_-Atoms/Dark/Tab---Unselected" transform="translate(56.000000, 0.000000)">
                    <g id="3-Icons/2-Navigation/3-Business/02-Accounts" transform="translate(33.880000, 6.000000)">
                        <g id="3-Icons/1-Material/action/donut_large" transform="translate(4.000000, 3.000000)">
                            <mask id="mask-2" fill="white">
                                <use xlink:href="#path-1"></use>
                            </mask>
                            <use id="maps/local_movies" fill="#6EFFC8" xlink:href="#path-1"></use>
                        </g>
                    </g>
                </g>
            </g>
        </g>
    </g>
</svg>