<svg width="15" height="15" viewBox="0 0 15 15" fill="none" xmlns="http://www.w3.org/2000/svg">
<path d="M10.3298 7.47872L14.5851 3.2234C15.1383 2.71277 15.1383 1.8617 14.5851 1.35106L13.6489 0.414894C13.1383 -0.138298 12.2872 -0.138298 11.7766 0.414894L7.52128 4.67021L3.2234 0.414894C2.71277 -0.138298 1.8617 -0.138298 1.35106 0.414894L0.414894 1.35106C-0.138298 1.8617 -0.138298 2.71277 0.414894 3.2234L4.67021 7.47872L0.414894 11.7766C-0.138298 12.2872 -0.138298 13.1383 0.414894 13.6489L1.35106 14.5851C1.8617 15.1383 2.71277 15.1383 3.2234 14.5851L7.52128 10.3298L11.7766 14.5851C12.2872 15.1383 13.1383 15.1383 13.6489 14.5851L14.5851 13.6489C15.1383 13.1383 15.1383 12.2872 14.5851 11.7766L10.3298 7.47872Z" fill="#F5F5F5"/>
</svg>
