<?xml version="1.0" encoding="UTF-8"?>
<svg width="25px" height="24px" viewBox="0 0 25 24" version="1.1" xmlns="http://www.w3.org/2000/svg" xmlns:xlink="http://www.w3.org/1999/xlink">
    <title>2372EAFE-C2B4-467C-AE7E-BE4F2637AC29@1x</title>
    <defs>
        <path d="M20,6 L20,2 C20,0.9 19.1,0 18,0 L2,0 C0.9,0 0.01,0.9 0.01,2 L0.01,6 C1.11,6 2,6.9 2,8 C2,9.1 1.11,10 0,10 L0,14 C0,15.1 0.9,16 2,16 L18,16 C19.1,16 20,15.1 20,14 L20,10 C18.9,10 18,9.1 18,8 C18,6.9 18.9,6 20,6 Z M18,4.54 C16.81,5.23 16,6.53 16,8 C16,9.47 16.81,10.77 18,11.46 L18,14 L2,14 L2,11.46 C3.19,10.77 4,9.47 4,8 C4,6.52 3.2,5.23 2.01,4.54 L2,2 L18,2 L18,4.54 Z M7.07,12 L10,10.12 L12.93,12 L12.04,8.64 L14.73,6.44 L11.26,6.23 L10,3 L8.73,6.22 L5.26,6.43 L7.95,8.63 L7.07,12 Z" id="path-1"></path>
    </defs>
    <g id="🔴-Variation-A-(details)" stroke="none" stroke-width="1" fill="none" fill-rule="evenodd">
        <g id="playing-now" transform="translate(-260.000000, -736.000000)">
            <g id="bottom-nav" transform="translate(0.000000, 730.000000)">
                <g id="Navigation/02-Bottom/_-Atoms/Dark/Tab---Unselected-Copy" transform="translate(227.000000, 0.000000)">
                    <g id="3-Icons/2-Navigation/3-Business/02-Accounts" transform="translate(33.880000, 6.000000)">
                        <g id="3-Icons/1-Material/action/donut_large" transform="translate(2.000000, 4.000000)">
                            <mask id="mask-2" fill="white">
                                <use xlink:href="#path-1"></use>
                            </mask>
                            <use id="maps/local_activity" fill="#BBBBBB" xlink:href="#path-1"></use>
                        </g>
                    </g>
                </g>
            </g>
        </g>
    </g>
</svg>