<svg width="25" height="28" viewBox="0 0 25 28" fill="none" xmlns="http://www.w3.org/2000/svg">
<path d="M20.9681 16.8864L22.282 13.4373C22.501 12.8899 22.1177 12.2329 21.4608 12.2329H18.2855C18.8877 11.2474 19.2709 10.043 19.2709 8.72909C21.406 8.29111 22.7747 7.6889 22.7747 6.97719C22.7747 6.26548 21.2418 5.60852 18.9424 5.17054C18.395 3.41864 17.4643 1.61199 16.6978 0.681295C16.1503 0.024332 15.2744 -0.194656 14.5079 0.188573L13.0298 0.955029C12.537 1.17402 11.9348 1.17402 11.4421 0.955029L9.96394 0.188573C9.19748 -0.194656 8.32153 0.024332 7.77406 0.681295C7.06235 1.61199 6.07691 3.41864 5.58418 5.17054C3.23007 5.60852 1.7519 6.26548 1.7519 6.97719C1.7519 7.6889 3.06583 8.29111 5.2557 8.72909C5.2557 10.043 5.58418 11.2474 6.1864 12.2329H3.06583C2.40886 12.2329 2.02564 12.8899 2.24462 13.4921L3.66804 16.7769C1.47817 18.0361 0 20.3902 0 23.1275V25.5911C0 26.9051 1.09494 28 2.40886 28H22.063C23.3769 28 24.5266 26.9051 24.5266 25.5911V23.1275C24.5266 20.4449 23.1032 18.1456 20.9681 16.8864ZM9.63546 26.2481L7.33608 15.7367L10.0734 17.4886L11.3874 19.6785L9.63546 26.2481ZM14.8912 26.2481L13.1393 19.6785L14.4532 17.4886L17.1358 15.7367L14.8912 26.2481ZM17.1358 9.93352C16.9168 10.5905 16.7526 11.3022 16.2598 11.7402C15.7124 12.2876 13.632 12.9993 12.756 10.3715C12.5918 9.93352 11.8801 9.93352 11.7158 10.3715C10.7851 13.1636 8.65001 12.1781 8.21204 11.7402C7.71931 11.3022 7.55507 10.5905 7.33608 9.93352C7.28134 9.76928 7.0076 9.60504 7.0076 9.60504V9.00282C8.54052 9.22181 10.3472 9.33131 12.2633 9.33131C14.1794 9.33131 15.9313 9.22181 17.519 9.00282V9.60504C17.519 9.60504 17.1905 9.76928 17.1358 9.93352Z" fill="#434343"/>
</svg>
