<svg width="28" height="28" viewBox="0 0 28 28" fill="none" xmlns="http://www.w3.org/2000/svg">
<path d="M14 0C6.26613 0 0 6.26613 0 14C0 21.7339 6.26613 28 14 28C21.7339 28 28 21.7339 28 14C28 6.26613 21.7339 0 14 0ZM8.58064 11.6855L6.94355 13.3226C6.09677 14.1694 4.79839 12.871 5.64516 12.0242L7.28226 10.3871L5.64516 8.80645C4.79839 7.95968 6.09677 6.66129 6.94355 7.50806L8.58064 9.14516L10.1613 7.50806C11.0081 6.66129 12.3065 7.95968 11.4597 8.80645L9.82258 10.3871L11.4597 12.0242C12.3065 12.871 11.0081 14.1694 10.1613 13.3226L8.58064 11.6855ZM14 23.0323C11.9677 23.0323 10.3871 21.4516 10.3871 19.4194C10.3871 17.4435 11.9677 15.8065 14 15.8065C15.9758 15.8065 17.6129 17.4435 17.6129 19.4194C17.6129 21.4516 15.9758 23.0323 14 23.0323ZM22.2984 12.0242C23.1452 12.871 21.8468 14.1694 21 13.3226L19.4194 11.6855L17.7823 13.3226C16.9355 14.1694 15.6371 12.871 16.4839 12.0242L18.121 10.3871L16.4839 8.80645C15.6371 7.95968 16.9355 6.66129 17.7823 7.50806L19.4194 9.14516L21 7.50806C21.8468 6.66129 23.1452 7.95968 22.2984 8.80645L20.6613 10.3871L22.2984 12.0242Z" fill="#434343"/>
</svg>
