<svg width="26" height="15" viewBox="0 0 26 15" fill="none" xmlns="http://www.w3.org/2000/svg">
<path d="M5.77778 3.75V11.25H20.2222V3.75H5.77778ZM23.8333 7.5C23.8333 6.48438 24.7812 5.625 26 5.625V1.875C26 0.859375 25.0069 0 23.8333 0H2.16667C0.947917 0 0 0.859375 0 1.875V5.625C1.17361 5.625 2.16667 6.48438 2.16667 7.5C2.16667 8.55469 1.17361 9.375 0 9.375V13.125C0 14.1797 0.947917 15 2.16667 15H23.8333C25.0069 15 26 14.1797 26 13.125V9.375C24.7812 9.375 23.8333 8.55469 23.8333 7.5ZM21.6667 3.4375V11.5625C21.6667 12.1094 21.1701 12.5 20.5833 12.5H5.41667C4.78472 12.5 4.33333 12.1094 4.33333 11.5625V3.4375C4.33333 2.92969 4.78472 2.5 5.41667 2.5H20.5833C21.1701 2.5 21.6667 2.92969 21.6667 3.4375Z" fill="#61A5C2"/>
</svg>
